# xmcd
#
# Track frame offsets: 
#        150
#        23237
#        45642
#        69040
#        92761
#        111259
#        134326
#        155494
#        176807
#        200452
#        221971
#        246211
#        265399
#        283591
#        306975
#
# Disc length: 4425 seconds
#
# Revision: 2
# Processed by: cddbd v1.5.2PL0 Copyright (c) Steve Scherf et al.
# Submitted via: ExactAudioCopyFreeDBPlugin 1.0
#
DISCID=e111470f
DTITLE=My Little Lover - Best Collection ~Complete Best~ Disc 2
DYEAR=1900
DGENRE=misc
TTITLE0=Man and Woman
TTITLE1=白いカイト
TTITLE2=Hello, Again ～昔からある場所～
TTITLE3=Alice
TTITLE4=NOW AND THEN ～失われた時を求めて～
TTITLE5=YES ～free flower～
TTITLE6=ANIMAL LIFE
TTITLE7=Shuffle
TTITLE8=空の下で
TTITLE9=DESTINY
TTITLE10=CRAZY LOVE
TTITLE11=shooting staｒ  ～シューティングスター～
TTITLE12=日傘 ～japanese beauty～
TTITLE13=Survival
TTITLE14=深呼吸の必要
EXTD=
EXTT0=
EXTT1=
EXTT2=
EXTT3=
EXTT4=
EXTT5=
EXTT6=
EXTT7=
EXTT8=
EXTT9=
EXTT10=
EXTT11=
EXTT12=
EXTT13=
EXTT14=
PLAYORDER=
